<?xml version="1.0" encoding="UTF-8"?>
<svg width="20px" height="20px" viewBox="0 0 20 20" version="1.1" xmlns="http://www.w3.org/2000/svg" xmlns:xlink="http://www.w3.org/1999/xlink">
    <title>关于我们</title>
    <g id="小程序" stroke="none" stroke-width="1" fill="none" fill-rule="evenodd">
        <g id="登录/注册" transform="translate(-33, -474)">
            <g id="编组-3" transform="translate(20, 320)">
                <g id="编组-2备份-5" transform="translate(10, 154)">
                    <g id="关于我们" transform="translate(3, 0)">
                        <rect id="矩形" fill="#D8D8D8" opacity="0" x="0" y="0" width="20" height="20"></rect>
                        <path d="M14.0868455,13.9390721 L5.91315453,13.9390721 C5.68837803,13.9390721 5.48914432,14.1252096 5.48914432,14.3515931 C5.48914432,14.588038 5.68837803,14.7691448 5.91315453,14.7691448 L14.0868455,14.7691448 C14.3167305,14.7691448 14.5159642,14.588038 14.5159642,14.3515931 C14.5159642,14.1252096 14.3167305,13.9390721 14.0868455,13.9390721 L14.0868455,13.9390721 Z M5.48914432,8.51089994 L5.48914432,8.51089994 C5.48914432,8.74231414 5.68837803,8.92845165 5.91315453,8.92845165 L14.0868455,8.92845165 C14.3167305,8.92845165 14.5159642,8.74231414 14.5159642,8.51089994 C14.5159642,8.27948575 14.3167305,8.09334824 14.0868455,8.09334824 L5.91315453,8.09334824 C5.68837803,8.09334824 5.48914432,8.27948575 5.48914432,8.51089994 L5.48914432,8.51089994 Z M17.8007663,6.20681945 L17.8007663,6.20681945 L12.7024266,1.20626048 C12.5747126,1.07546115 12.4112388,1 12.2068966,1 L3.89016603,1 C3.36398467,1 2.89399745,1.21129122 2.55172414,1.54835103 C2.21455939,1.88541084 2,2.3432085 2,2.85131358 L2,17.1436557 C2,17.6517608 2.21455939,18.1145892 2.55172414,18.451649 L2.56194125,18.451649 C2.899106,18.783678 3.36398467,19 3.89016603,19 L16.109834,19 C16.6155811,19 17.0855683,18.7937395 17.4278416,18.4617105 L17.4380587,18.451649 L17.4431673,18.451649 C17.7905492,18.1095584 18,17.6416993 18,17.1436557 L18,6.69983231 C18,6.51872554 17.9233716,6.34264952 17.8007663,6.20681945 L17.8007663,6.20681945 Z M12.6309068,3.08775852 L12.6309068,3.08775852 L15.8850575,6.2822806 L13.3818646,6.2822806 C13.1775223,6.2822806 12.9885057,6.19675797 12.8607918,6.06595864 L12.8403576,6.04583566 C12.7024266,5.91000559 12.6309068,5.73392957 12.6309068,5.53773058 L12.6309068,3.08775852 L12.6309068,3.08775852 Z M16.5900383,17.1436557 L16.5900383,17.1436557 C16.5900383,17.2694243 16.5338442,17.3901621 16.4521073,17.470654 C16.3652618,17.5561766 16.247765,17.6115148 16.109834,17.6115148 L3.89016603,17.6115148 C3.75734355,17.6115148 3.63984674,17.5561766 3.54789272,17.470654 C3.46104725,17.3901621 3.40996169,17.2694243 3.40996169,17.1436557 L3.40996169,2.85131358 C3.40996169,2.73057574 3.46104725,2.6098379 3.54789272,2.52431526 C3.63984674,2.43376188 3.75734355,2.38345444 3.89016603,2.38345444 L11.7931034,2.38345444 L11.7931034,5.53773058 C11.7931034,5.96031302 11.9565773,6.34264952 12.2324393,6.6294019 L12.2630907,6.65455562 C12.5440613,6.93124651 12.9425287,7.11738401 13.3818646,7.11738401 L16.5900383,7.11738401 L16.5900383,17.1436557 L16.5900383,17.1436557 Z M14.0868455,11.0212409 L5.91315453,11.0212409 C5.68837803,11.0212409 5.48914432,11.2073784 5.48914432,11.4337619 C5.48914432,11.6601453 5.68837803,11.8513136 5.91315453,11.8513136 L14.0868455,11.8513136 C14.3167305,11.8513136 14.5159642,11.6601453 14.5159642,11.4337619 C14.5159642,11.2073784 14.3167305,11.0212409 14.0868455,11.0212409 L14.0868455,11.0212409 Z" id="Fill-752" fill="#272829"></path>
                    </g>
                </g>
            </g>
        </g>
    </g>
</svg>