<?xml version="1.0" encoding="UTF-8"?>
<svg width="20px" height="20px" viewBox="0 0 20 20" version="1.1" xmlns="http://www.w3.org/2000/svg" xmlns:xlink="http://www.w3.org/1999/xlink">
    <title>关闭</title>
    <g id="小程序" stroke="none" stroke-width="1" fill="none" fill-rule="evenodd">
        <g id="1.3.3继续添加地址" transform="translate(-343, -303)" fill="#999999" fill-rule="nonzero">
            <path d="M352.999797,303 C358.513709,303 363,307.485886 363,313 C363,318.514114 358.513283,323 352.999797,323 C347.485886,323 343,318.513911 343,313 C343,307.486089 347.485886,303 352.999797,303 Z M352.999802,303.898739 C347.981331,303.898739 343.898541,307.98155 343.898541,313 C343.898541,318.01845 347.981557,322.101261 352.999802,322.101261 C358.018047,322.101261 362.100222,318.01845 362.100222,313 C362.100222,307.98155 358.018457,303.898739 352.999802,303.898739 Z M356.666815,308.968665 C356.845405,309.013486 356.984852,309.152929 357.029678,309.331517 C357.074504,309.510106 357.017439,309.698873 356.881185,309.822721 L353.703683,313.002068 L356.882625,316.175616 C357.025683,316.318521 357.068613,316.533511 356.991408,316.720398 C356.914203,316.907285 356.732057,317.029294 356.529851,317.029567 C356.396692,317.029822 356.269322,316.977087 356.175616,316.883051 L352.996471,313.703906 L349.823552,316.882219 C349.69969,317.018411 349.510953,317.075428 349.332404,317.030595 C349.153854,316.985763 349.01444,316.846349 348.969608,316.667799 C348.924775,316.489249 348.981792,316.300513 349.117983,316.176651 L352.295709,312.997506 L349.117172,309.824181 C348.990877,309.697886 348.941554,309.513807 348.987781,309.341285 C349.034008,309.168763 349.168763,309.034008 349.341285,308.987781 C349.513807,308.941554 349.697886,308.990877 349.824181,309.117172 L353.002697,312.295709 L356.175616,309.117172 C356.29946,308.980915 356.488226,308.923844 356.666815,308.968665 Z" id="关闭"></path>
        </g>
    </g>
</svg>