<?xml version="1.0" encoding="UTF-8"?>
<svg width="20px" height="20px" viewBox="0 0 20 20" version="1.1" xmlns="http://www.w3.org/2000/svg" xmlns:xlink="http://www.w3.org/1999/xlink">
    <title>联系客服</title>
    <g id="小程序" stroke="none" stroke-width="1" fill="none" fill-rule="evenodd">
        <g id="登录/注册" transform="translate(-33, -340)" fill="#272829" fill-rule="nonzero">
            <g id="编组-3" transform="translate(20, 320)">
                <g id="编组-2" transform="translate(10, 20)">
                    <g id="联系客服" transform="translate(3, 0)">
                        <rect id="矩形" opacity="0" x="0" y="0" width="20" height="20"></rect>
                        <path d="M14.955,7.65833334 C13.9793132,8.02472238 13.3331403,8.95778813 13.3333333,10 L13.3333333,10.8333333 C13.3333333,11.9166667 14.0216667,12.8383333 14.985,13.1858333 C14.455,14.2791667 13.5558333,14.9316667 12.6016667,15.3225 C12.034285,15.5495464 11.4399034,15.7022034 10.8333333,15.7766667 L10.8333333,14.1666667 C10.8333333,13.7064294 10.4602373,13.3333333 10,13.3333333 C9.5397627,13.3333333 9.16666666,13.7064294 9.16666666,14.1666667 L9.16666666,16.6666667 C9.16666666,17.126904 9.5397627,17.5 10,17.5 C10.6983333,17.5 11.9583333,17.3858333 13.2325,16.865 C14.5125,16.3416667 15.8525,15.3841667 16.5891667,13.685 L16.8791667,13.105 C17.7658312,12.6966285 18.3336975,11.8095204 18.3333335,10.8333333 L18.3333335,10 C18.3333335,8.92625049 17.6476896,7.97241195 16.63,7.63 C16.2689513,4.2401645 13.4090088,1.66865597 10,1.66865597 C6.59099123,1.66865597 3.73104865,4.2401645 3.37,7.63 C2.35231042,7.97241195 1.66666666,8.92625049 1.66666666,10 L1.66666666,10.8333333 C1.66666666,12.2140452 2.78595479,13.3333333 4.16666666,13.3333333 C5.54737853,13.3333333 6.66666666,12.2140452 6.66666666,10.8333333 L6.66666666,10 C6.66685972,8.95778813 6.02068678,8.02472238 5.045,7.65833334 C5.38280995,5.18041762 7.49916377,3.33300655 10,3.33300655 C12.5008362,3.33300655 14.6171901,5.18041762 14.955,7.65833334 Z M16.6666667,10 L16.6666667,10.8333333 C16.6667122,11.131085 16.5078898,11.4062385 16.2500368,11.5551275 C15.9921839,11.7040165 15.6744828,11.7040165 15.4166298,11.5551275 C15.1587769,11.4062385 14.9999544,11.131085 15,10.8333333 L15,10 C14.9999544,9.70224829 15.1587769,9.42709486 15.4166298,9.27820584 C15.6744828,9.12931683 15.9921839,9.12931683 16.2500368,9.27820584 C16.5078898,9.42709486 16.6667122,9.70224829 16.6666667,10 L16.6666667,10 Z M5.00000001,10.8333333 C5.00004558,11.131085 4.84122312,11.4062385 4.58337017,11.5551275 C4.32551722,11.7040165 4.00781612,11.7040165 3.74996317,11.5551275 C3.49211022,11.4062385 3.33328776,11.131085 3.33333333,10.8333333 L3.33333333,10 C3.33328776,9.70224829 3.49211022,9.42709486 3.74996317,9.27820584 C4.00781612,9.12931683 4.32551722,9.12931683 4.58337017,9.27820584 C4.84122312,9.42709486 5.00004558,9.70224829 5.00000001,10 L5.00000001,10.8333333 Z" id="形状"></path>
                    </g>
                </g>
            </g>
        </g>
    </g>
</svg>