<?xml version="1.0" encoding="UTF-8"?>
<svg width="24px" height="24px" viewBox="0 0 24 24" version="1.1" xmlns="http://www.w3.org/2000/svg" xmlns:xlink="http://www.w3.org/1999/xlink">
    <title>删除</title>
    <g id="小程序" stroke="none" stroke-width="1" fill="none" fill-rule="evenodd">
        <g id="1.3.3继续添加地址" transform="translate(-328, -392)" fill="#EA5151" fill-rule="nonzero">
            <g id="编组-13" transform="translate(15, 369)">
                <g id="删除" transform="translate(313, 23)">
                    <rect id="矩形" opacity="0" x="0" y="0" width="24" height="24"></rect>
                    <path d="M20.2200269,5.0029817 L15.1720409,5.0029817 C15.0957011,3.33427114 13.7052771,2 12.0068613,2 C10.3084455,2 8.91802158,3.33427114 8.84168171,5.0029817 L3.77997311,5.0029817 C3.34920858,5.0029817 3,5.34986605 3,5.77776352 C3,6.20566099 3.34920858,6.55254534 3.77997311,6.55254534 L20.2200269,6.55254534 C20.6507914,6.55254534 21,6.20566099 21,5.77776352 C21,5.34986605 20.6507914,5.0029817 20.2200269,5.0029817 Z M12.0068613,3.54953943 C12.8448206,3.54953943 13.534853,4.18936394 13.6086823,5.00295749 L10.4050647,5.00295749 C10.478894,4.18936394 11.1689021,3.54953943 12.0068613,3.54953943 L12.0068613,3.54953943 Z M18.2700941,8.09816244 C17.8393296,8.09816244 17.490121,8.44504678 17.490121,8.87294426 L17.490121,20.4504364 L6.58300146,20.4504364 L6.58300146,8.87294426 C6.58300146,8.44504678 6.23379288,8.09816244 5.80302835,8.09816244 C5.37226383,8.09816244 5.02305525,8.44504678 5.02305525,8.87294426 L5.02305525,21.2252182 C5.02305525,21.6531157 5.37226383,22 5.80302835,22 L18.2700941,22 C18.7008586,22 19.0500672,21.6531157 19.0500672,21.2252182 L19.0500672,8.87294426 C19.0500672,8.44504678 18.7008586,8.09816244 18.2700941,8.09816244 L18.2700941,8.09816244 Z" id="形状"></path>
                    <path d="M10.5027354,17.2656422 L10.5027354,10.7343808 C10.5027354,10.328796 10.166334,10 9.75136772,10 C9.33640142,10 9,10.328796 9,10.7343808 L9,17.2656192 C9,17.671204 9.33640142,18 9.75136772,18 C10.166334,18 10.5027354,17.6712269 10.5027354,17.2656422 Z M15,17.2656422 L15,10.7343808 C15,10.328796 14.6635986,10 14.2486323,10 C13.833666,10 13.4972646,10.328796 13.4972646,10.7343808 L13.4972646,17.2656192 C13.4972646,17.671204 13.833666,18 14.2486323,18 C14.6635986,18 15,17.6712269 15,17.2656422 Z" id="形状"></path>
                </g>
            </g>
        </g>
    </g>
</svg>