<?xml version="1.0" encoding="UTF-8"?>
<svg width="24px" height="24px" viewBox="0 0 24 24" version="1.1" xmlns="http://www.w3.org/2000/svg" xmlns:xlink="http://www.w3.org/1999/xlink">
    <title>编辑</title>
    <g id="小程序" stroke="none" stroke-width="1" fill="none" fill-rule="evenodd">
        <g id="1.3.3继续添加地址" transform="translate(-286, -393)" fill="#7CB79C" fill-rule="nonzero">
            <g id="编组-13" transform="translate(15, 369)">
                <g id="编辑" transform="translate(271, 24)">
                    <rect id="矩形" opacity="0" x="0" y="0" width="24" height="24"></rect>
                    <path d="M11,3 C11.5503851,3.00266459 11.9951588,3.44959671 11.9951588,4 C11.9951588,4.55039548 11.5503851,4.9973276 11,5 L5,5 L5,19 L19,19 L19,13 L19.0069922,12.8830078 C19.0695147,12.3576424 19.5304343,11.9718874 20.0585977,12.0028934 C20.586761,12.0338994 20.9993785,12.4709355 21,13 L21,19 C21,20.104573 20.104573,21 19,21 L5,21 C3.895427,21 3,20.104573 3,19 L3,5 C3,3.895427 3.895427,3 5,3 L11,3 Z M20.7199922,3.29299219 C21.110375,3.68349472 21.110375,4.31649747 20.7199922,4.707 L11.5279922,13.9000078 C11.135548,14.2785834 10.5121622,14.2729747 10.1265931,13.8873993 C9.74102408,13.5018238 9.73542574,12.8784379 10.1140078,12.486 L19.3060078,3.294 C19.6965077,2.90363279 20.3294923,2.90363279 20.7199922,3.294 L20.7199922,3.29299219 Z" id="形状"></path>
                </g>
            </g>
        </g>
    </g>
</svg>