<?xml version="1.0" encoding="UTF-8"?>
<svg width="181px" height="112px" viewBox="0 0 181 112" version="1.1" xmlns="http://www.w3.org/2000/svg" xmlns:xlink="http://www.w3.org/1999/xlink">
    <title>暂无内容</title>
    <defs>
        <linearGradient x1="50%" y1="100%" x2="50%" y2="0%" id="linearGradient-1">
            <stop stop-color="#B4B8BF" stop-opacity="0" offset="0%"></stop>
            <stop stop-color="#B4B8BF" offset="100%"></stop>
        </linearGradient>
        <linearGradient x1="50%" y1="100%" x2="50%" y2="0%" id="linearGradient-2">
            <stop stop-color="#B4B8BF" stop-opacity="0" offset="0%"></stop>
            <stop stop-color="#B4B8BF" offset="100%"></stop>
        </linearGradient>
        <linearGradient x1="50%" y1="100%" x2="50%" y2="0%" id="linearGradient-3">
            <stop stop-color="#B4B8BF" stop-opacity="0" offset="0%"></stop>
            <stop stop-color="#B4B8BF" offset="100%"></stop>
        </linearGradient>
        <linearGradient x1="50%" y1="100%" x2="50%" y2="0%" id="linearGradient-4">
            <stop stop-color="#B4B8BF" stop-opacity="0" offset="0%"></stop>
            <stop stop-color="#B4B8BF" offset="100%"></stop>
        </linearGradient>
        <linearGradient x1="100%" y1="49.8792597%" x2="0%" y2="49.8911111%" id="linearGradient-5">
            <stop stop-color="#B4B8BF" stop-opacity="0" offset="0%"></stop>
            <stop stop-color="#B4B8BF" stop-opacity="0.911806468" offset="91.1806468%"></stop>
            <stop stop-color="#B4B8BF" offset="100%"></stop>
        </linearGradient>
    </defs>
    <g id="小程序" stroke="none" stroke-width="1" fill="none" fill-rule="evenodd" opacity="0.5">
        <g id="积分明细-空" transform="translate(-97, -309)">
            <g id="暂无内容" transform="translate(97.2504, 309.1319)">
                <g id="background/default/hill" transform="translate(0, 25.3824)">
                    <path d="M0,82.2857143 C22.3048549,73.2 52.3048549,68.6571429 90,68.6571429 C127.695145,68.6571429 157.695145,73.2 180,82.2857143" id="路径-19" fill="url(#linearGradient-1)" opacity="0.16"></path>
                    <path d="M124.457143,43.9714286 L142.163451,26.2651206 C144.171861,24.2567099 147.428139,24.2567099 149.436549,26.2651206 L167.142857,43.9714286 L167.142857,43.9714286" id="路径-22备份-2" fill="url(#linearGradient-2)" opacity="0.26"></path>
                    <path d="M25.2,17.4857143 L39.0491651,3.63654916 C41.0575758,1.62813852 44.3138528,1.62813852 46.3222634,3.63654916 L60.1714286,17.4857143 L60.1714286,17.4857143" id="路径-22" fill="url(#linearGradient-3)" opacity="0.26"></path>
                    <path d="M12.3428571,33.1714286 L21.5634508,23.9508349 C23.5718615,21.9424242 26.8281385,21.9424242 28.8365492,23.9508349 L38.0571429,33.1714286 L38.0571429,33.1714286" id="路径-22备份" fill="url(#linearGradient-4)" opacity="0.26"></path>
                </g>
                <ellipse id="椭圆形备份-8" fill="url(#linearGradient-5)" opacity="0.16" cx="89.7428571" cy="109.982355" rx="38.5714286" ry="1.8"></ellipse>
                <path d="M48.4413316,101.496641 C26.9247526,100.547519 16.911626,98.0304114 18.4019518,93.9453171 C20.6374406,87.8176756 125.652615,87.3018707 140.236087,77.1551861 C154.81956,67.0085016 100.276726,56.970043 100.276726,48.26955 C100.276726,42.4692214 113.596513,36.211585 140.236087,29.4966408" id="路径-20" stroke="#E6E8ED" stroke-width="1.8" stroke-linecap="round" stroke-dasharray="3.6" transform="translate(80.4857, 65.4966) rotate(-4) translate(-80.4857, -65.4966)"></path>
                <g id="objects/element/mail" transform="translate(54, 30.5252)">
                    <rect id="矩形" fill="#C9CDD4" x="0" y="29.0571429" width="72" height="43.2" rx="4.18064516"></rect>
                    <rect id="矩形" fill="#E6E8ED" x="8.74285714" y="0" width="54.2571429" height="62.7428571" rx="4.64516129"></rect>
                    <rect id="矩形" fill="#F0F2F5" x="13.8857143" y="13.3714286" width="28.5428571" height="3.85714286" rx="1.92857143"></rect>
                    <rect id="矩形备份" fill="#F0F2F5" x="13.8857143" y="21.8571429" width="28.5428571" height="3.85714286" rx="1.92857143"></rect>
                    <rect id="矩形备份-2" fill="#F0F2F5" x="13.8857143" y="30.8571429" width="39.6" height="3.85714286" rx="1.92857143"></rect>
                    <path d="M0,34.7142857 L69.5266631,65.8199513 C71.0313553,66.4931385 72,67.9876698 72,69.6360872 L72,73.7336406 C72,76.0425471 70.1282614,77.9142857 67.8193548,77.9142857 L4.18064516,77.9142857 C1.87173859,77.9142857 2.05911634e-15,76.0425471 1.77635684e-15,73.7336406 L0,34.7142857 L0,34.7142857 Z" id="矩形" fill="#D7DAE0" transform="translate(36, 56.3143) scale(-1, 1) translate(-36, -56.3143)"></path>
                    <path d="M0,34.7142857 L69.5266631,65.8199513 C71.0313553,66.4931385 72,67.9876698 72,69.6360872 L72,73.7336406 C72,76.0425471 70.1282614,77.9142857 67.8193548,77.9142857 L4.18064516,77.9142857 C1.87173859,77.9142857 2.05911634e-15,76.0425471 1.77635684e-15,73.7336406 L0,34.7142857 L0,34.7142857 Z" id="矩形" fill="#DFE2E8"></path>
                </g>
                <g id="objects/element/paperairplane" transform="translate(144.0131, 18.1373) scale(-1, 1) rotate(-29) translate(-144.0131, -18.1373)translate(130.6932, 4.7833)">
                    <path d="M15.8212538,24.7778865 L17.8813203,16.4230249 L0.68927184,0.633058879 C0.639577385,0.587417212 0.562292189,0.590702646 0.516650522,0.6403971 C0.479179471,0.681195423 0.473847533,0.742099237 0.503659366,0.788787966 L15.8212538,24.7778865 L15.8212538,24.7778865 Z" id="路径-17" fill="#C9CDD4"></path>
                    <polygon id="路径-14" fill="#B4B8BF" points="12.2881459 20.9174635 16.2961061 18.5866082 15.8212538 24.7778865"></polygon>
                    <path d="M0.46946744,0.314508854 C0.57235893,0.227192513 0.726552843,0.239818665 0.813869184,0.342710155 L0.820218542,0.351461482 L26.4060332,11.3201684 C26.6018244,11.4041034 26.6925018,11.6308663 26.6085669,11.8266575 C26.5732616,11.9090124 26.5103855,11.9765063 26.4307349,12.0175499 L17.9571206,16.3839653 C17.9115845,16.4074299 17.8562454,16.399995 17.8185173,16.3653437 L2.36921854,2.17646148 L16.2128235,18.4884699 C16.2577343,18.5470824 16.2474122,18.6237456 16.1937613,18.6646636 L5.79260856,26.597323 C5.7240716,26.6495941 5.64401757,26.6846993 5.55913853,26.6997039 C5.26545817,26.7516194 4.98529731,26.5556304 4.93338172,26.26195 L0.386954394,0.543344982 C0.371836151,0.457822858 0.403249554,0.37070304 0.46946744,0.314508854 Z" id="形状结合" fill="#D7DAE0"></path>
                </g>
            </g>
        </g>
    </g>
</svg>