<?xml version="1.0" encoding="UTF-8"?>
<svg width="22px" height="22px" viewBox="0 0 22 22" version="1.1" xmlns="http://www.w3.org/2000/svg" xmlns:xlink="http://www.w3.org/1999/xlink">
    <title>首页-1</title>
    <g id="小程序" stroke="none" stroke-width="1" fill="none" fill-rule="evenodd">
        <g id="画板" transform="translate(-85, -15)">
            <g id="首页-1" transform="translate(85, 15)">
                <rect id="矩形" fill-opacity="0" fill="#FFFFFF" x="0" y="0" width="22" height="22"></rect>
                <path d="M21.3541359,11.0030961 L12.0525765,1.85076614 C11.4778193,1.28520947 10.5425712,1.28520947 9.96770317,1.85076614 L0.666143799,11.0030961 C0.444618734,11.2209555 0.444618734,11.5742683 0.666143799,11.7921277 C0.887558047,12.0099871 1.24652507,12.0099871 1.46796702,11.7921277 L2.23565831,11.0366255 L2.23565831,18.9494849 C2.23565831,19.7492841 2.89701979,20.4 3.70995251,20.4 L18.2251636,20.4 C19.038124,20.4 19.6994578,19.7492841 19.6994578,18.9494849 L19.6994578,10.9528293 L20.5523404,11.7921277 C20.6630475,11.9010574 20.8081636,11.9554677 20.9533074,11.9554677 C21.0984235,11.9554677 21.2434288,11.9010574 21.3541359,11.7921277 C21.5755778,11.5742683 21.5755778,11.2209555 21.3541359,11.0030961 L21.3541359,11.0030961 Z M13.5757968,19.2841793 L8.35934697,19.2841793 L8.35934697,13.6828321 C8.35934697,13.4983113 8.51191557,13.348165 8.69958575,13.348165 L13.2355303,13.348165 C13.4232005,13.348165 13.5757968,13.4983113 13.5757968,13.6828321 L13.5757968,19.2841793 L13.5757968,19.2841793 Z M18.5654024,18.9494849 C18.5654024,19.134033 18.4128061,19.2841793 18.2251636,19.2841793 L14.7097137,19.2841793 L14.7097137,13.6828321 C14.7097137,12.883033 14.0484908,12.2323171 13.2355303,12.2323171 L8.69958575,12.2323171 C7.88662533,12.2323171 7.22529156,12.883033 7.22529156,13.6828321 L7.22529156,19.2841793 L3.70995251,19.2841793 C3.52231003,19.2841793 3.36971372,19.134033 3.36971372,18.9494849 L3.36971372,9.92088666 L10.7696372,2.6397977 C10.9022032,2.50925108 11.1181042,2.50925108 11.2506702,2.6397977 L18.5654024,9.83709039 L18.5654024,18.9494849 L18.5654024,18.9494849 Z" id="iconfont-zhuye-2" stroke="#898989" stroke-width="0.5" fill="#898989"></path>
            </g>
        </g>
    </g>
</svg>