<?xml version="1.0" encoding="UTF-8"?>
<svg width="22px" height="22px" viewBox="0 0 22 22" version="1.1" xmlns="http://www.w3.org/2000/svg" xmlns:xlink="http://www.w3.org/1999/xlink">
    <title>首页</title>
    <g id="小程序" stroke="none" stroke-width="1" fill="none" fill-rule="evenodd">
        <g id="画板" transform="translate(-85, -50)">
            <g id="首页" transform="translate(85, 50)">
                <rect id="矩形" fill-opacity="0" fill="#FFFFFF" x="0" y="0" width="22" height="22"></rect>
                <path d="M21.8261772,11.0946161 L12.0910588,1.44718318 C11.4895113,0.850938941 10.510554,0.850938941 9.90900647,1.44718318 L0.173888002,11.0946161 C-0.0579626672,11.3242635 -0.0579626672,11.6966934 0.173888002,11.9263408 C0.405622687,12.1559883 0.781321676,12.1559883 1.01308536,11.9263408 L1.81655985,11.1299597 L1.81655985,19.4709999 C1.81655985,20.3140461 2.50874834,21 3.35957302,21 L18.551359,21 C19.4022127,21 20.0943722,20.3140461 20.0943722,19.4709999 L20.0943722,11.0417443 L20.9870089,11.9263408 C21.1028762,12.0411646 21.2547564,12.0985189 21.4066655,12.0985189 C21.5585457,12.0985189 21.7103099,12.0411646 21.8261772,11.9263408 C22.0579409,11.6966934 22.0579409,11.3242635 21.8261772,11.0946161 L21.8261772,11.0946161 Z M13.7066775,20.428094 L13.7066775,14.5236957 C13.7066775,14.5236957 13.7295552,14.2254586 13.3505797,14.1707766 L8.6031792,14.1707766 C8.6031792,14.1707766 8.24708139,14.1611504 8.24708139,14.5236957 L8.24708139,20.428094 L7.06016602,20.428094 L7.06016602,14.5236957 C7.06016602,14.5236957 7.0679949,13.1966141 8.47339385,13.0001839 C9.0977031,12.9946956 13.3505797,12.9946956 13.3505797,12.9946956 C13.3505797,12.9946956 14.6416771,12.9322839 14.8866629,14.3804534 L14.8934769,20.428094 L13.7066775,20.428094 L13.7066775,20.428094 Z" id="iconfont-zhuye" fill="#7CB79C"></path>
            </g>
        </g>
    </g>
</svg>