<?xml version="1.0" encoding="UTF-8"?>
<svg width="20px" height="21px" viewBox="0 0 20 21" version="1.1" xmlns="http://www.w3.org/2000/svg" xmlns:xlink="http://www.w3.org/1999/xlink">
    <title>上传图片</title>
    <g id="小程序" stroke="none" stroke-width="1" fill="none" fill-rule="evenodd">
        <g id="提交信息" transform="translate(-318, -317)">
            <g id="编组-3" transform="translate(14, 297)">
                <g id="编组备份" transform="translate(21, 20)">
                    <g id="上传图片" transform="translate(283, 0.5)">
                        <rect id="矩形" fill-opacity="0" fill="#FFFFFF" x="0" y="0" width="20" height="20"></rect>
                        <path d="M19.0625487,1.5 C19.5801237,1.5 20,1.91591949 20,2.42856809 L20,17.816658 C20,18.3293264 19.5800837,18.7452458 19.0625087,18.7452458 L0.936989075,18.7452458 C0.7821488,18.744256 0.643755711,18.6993559 0.516415688,18.6346785 C0.502304531,18.6275713 0.486294588,18.6310556 0.472403318,18.6231169 C0.436385944,18.602706 0.414799503,18.5694467 0.382599729,18.5452743 C0.330872199,18.5065905 0.281663116,18.4691738 0.239089847,18.4208884 C0.198815138,18.3751767 0.16929367,18.3259806 0.1391526,18.274211 C0.109391314,18.2234311 0.0813888869,18.1746904 0.0615613434,18.1183871 C0.0397550356,18.0564219 0.0312004063,17.9942191 0.022965573,17.9290863 C0.0180086968,17.8905411 0,17.8565295 0,17.8166382 L0,2.42858787 C0,1.91591947 0.419936286,1.5 0.93751124,1.5 Z M6.41970843,10.1848554 L2.55311665,16.8880305 L18.1250575,16.8880305 L18.1250575,15.9919496 L11.5985561,11.4676945 L11.1578728,12.2318468 C11.0271415,12.4585022 10.8059784,12.62005 10.5487354,12.676789 C10.2911771,12.7360222 10.0220062,12.6804118 9.80594187,12.5316952 L6.41970843,10.1848554 Z M18.1250575,3.35715597 L1.87502248,3.35715597 L1.87502248,14.3194026 L5.30155062,8.37968694 C5.43278821,8.15358306 5.65372945,7.99156274 5.91068808,7.93474477 C6.1670271,7.87428412 6.43619806,7.92991425 6.6534816,8.07983849 L10.0396951,10.4266783 L10.4803783,9.66252599 C10.6111096,9.43587056 10.8322728,9.27432277 11.0895158,9.21758382 C11.3446356,9.15591554 11.6156254,9.2127533 11.8323093,9.36267754 L18.1250575,13.7253083 L18.1250575,3.35715597 Z M15.17507,4.99357309 C15.8900728,4.99357309 16.469697,5.56768038 16.469697,6.27587761 C16.469697,6.98407484 15.8900728,7.55818213 15.17507,7.55818213 C14.4600673,7.55818213 13.8804431,6.98407484 13.8804431,6.27587761 C13.8804431,5.56768038 14.4600673,4.99357309 15.17507,4.99357309 Z" id="Combined-Shape" fill="#7CB79C" fill-rule="nonzero"></path>
                    </g>
                </g>
            </g>
        </g>
    </g>
</svg>