<?xml version="1.0" encoding="UTF-8"?>
<svg width="18px" height="18px" viewBox="0 0 18 18" version="1.1" xmlns="http://www.w3.org/2000/svg" xmlns:xlink="http://www.w3.org/1999/xlink">
    <title>位置</title>
    <g id="小程序" stroke="none" stroke-width="1" fill="none" fill-rule="evenodd">
        <g id="1.3.2填写地址" transform="translate(-30, -138)" fill="#7CB79C" fill-rule="nonzero">
            <g id="编组-12" transform="translate(15, 103)">
                <g id="位置" transform="translate(15, 35)">
                    <rect id="矩形" opacity="0" x="0" y="0" width="18" height="18"></rect>
                    <path d="M13.24575,11.664 C14.3683487,10.5513658 14.9998625,9.03631697 14.9998625,7.45575293 C14.9998625,5.87518889 14.3683487,4.36014003 13.24575,3.24750586 C10.9020059,0.917244141 7.09799414,0.917244141 4.75425,3.24750586 C3.63165128,4.36014003 3.00013745,5.87518889 3.00013745,7.45575293 C3.00013745,9.03631697 3.63165128,10.5513658 4.75425,11.664 L9,15.885 L13.24575,11.664 L13.24575,11.664 Z M3.69675,12.72825 C2.2906432,11.3340249 1.49969411,9.43590443 1.49969411,7.45575293 C1.49969411,5.47560143 2.2906432,3.57748096 3.69675,2.18325586 C6.62549414,-0.727505859 11.3745059,-0.727505859 14.3025117,2.18399414 C15.7086239,3.57821993 16.4995765,5.47634417 16.4995765,7.4565 C16.4995765,9.43665583 15.7086239,11.3347801 14.3025117,12.7290059 L9,18 L3.69675,12.7274941 L3.69675,12.72825 Z M8.99999707,8.99999414 C9.82842874,8.99999414 10.4999971,8.32842581 10.4999971,7.49999414 C10.4999971,6.67156833 9.82842874,5.99999414 8.99999707,5.99999414 C8.17157126,5.99999414 7.49999707,6.67156833 7.49999707,7.49999414 C7.49999707,8.32842581 8.17157126,8.99999414 8.99999707,8.99999414 Z M9,10.500003 C7.92647449,10.5025927 6.93338233,9.93136551 6.39586802,9.00209583 C5.85835372,8.07282614 5.85835372,6.927168 6.39586802,5.99789831 C6.93338233,5.06862863 7.92647449,4.49740141 9,4.49999117 C10.6540174,4.50400374 11.992744,5.8459748 11.992744,7.49999117 C11.992744,9.15401934 10.6540174,10.4959904 9,10.500003 L9,10.500003 Z" id="形状"></path>
                </g>
            </g>
        </g>
    </g>
</svg>