<?xml version="1.0" encoding="UTF-8"?>
<svg width="22px" height="22px" viewBox="0 0 22 22" version="1.1" xmlns="http://www.w3.org/2000/svg" xmlns:xlink="http://www.w3.org/1999/xlink">
    <title>我的-1</title>
    <g id="小程序" stroke="none" stroke-width="1" fill="none" fill-rule="evenodd">
        <g id="画板" transform="translate(-271, -50)">
            <g id="我的-1" transform="translate(271, 50)">
                <rect id="矩形" fill-opacity="0" fill="#FFFFFF" x="0" y="0" width="22" height="22"></rect>
                <g id="编组-2" transform="translate(0.5, 1)">
                    <path d="M21.0256748,19.1448327 C21.0256748,19.5993309 20.6635983,19.967881 20.2169374,19.967881 C19.7703861,19.967881 19.4083096,19.5993309 19.4083096,19.1448327 L19.4083096,18.6991822 C19.4083096,16.6353903 15.2836174,13.7189219 10.5464922,13.7189219 C6.78048,13.7189219 1.61736522,16.1772491 1.61736522,18.6169888 L1.61736522,19.1448327 C1.61736522,19.5993309 1.2552887,19.967881 0.808773913,19.967881 C0.362076522,19.967881 0,19.5993309 0,19.1448327 L0,18.1090335 C0,16.8757249 1.79968174,13.7032342 6.71485043,12.5245353 C4.93985739,11.2891822 3.77386435,9.21349442 3.77386435,6.85959108 C3.77386435,3.07141264 6.7908887,1.77635684e-15 10.5128557,1.77635684e-15 C14.23464,1.77635684e-15 17.2518104,3.07141264 17.2518104,6.85959108 C17.2518104,9.17446097 16.1219374,11.2173234 14.3962852,12.4593309 C19.36452,13.5912639 21.0256748,16.9256506 21.0256748,18.1090335 C21.0256748,18.6452788 21.0256748,19.0473978 21.0256748,19.1448327 L21.0256748,19.1448327 Z M15.6344452,6.85944238 C15.6344452,3.9804461 13.3414278,1.64628253 10.5128557,1.64628253 C7.68424696,1.64628253 5.39122957,3.9804461 5.39122957,6.85944238 C5.39122957,9.73888476 7.68424696,12.0726394 10.5128557,12.0726394 C13.3414278,12.0726394 15.6344452,9.73888476 15.6344452,6.85944238 L15.6344452,6.85944238 Z" id="iconfont-wode" fill="#898989"></path>
                    <path d="M8,14 L10.0257289,17.1232737 C10.1759938,17.3549525 10.4856203,17.4209515 10.7172991,17.2706866 C10.7750901,17.2332039 10.824513,17.1841845 10.8624681,17.1267026 L12.9270223,14 L12.9270223,14" id="Path-2" stroke="#898989" stroke-width="1.4"></path>
                </g>
            </g>
        </g>
    </g>
</svg>