<?xml version="1.0" encoding="UTF-8"?>
<svg width="22px" height="22px" viewBox="0 0 22 22" version="1.1" xmlns="http://www.w3.org/2000/svg" xmlns:xlink="http://www.w3.org/1999/xlink">
    <title>我的</title>
    <g id="小程序" stroke="none" stroke-width="1" fill="none" fill-rule="evenodd">
        <g id="画板" transform="translate(-270, -15)">
            <g id="我的" transform="translate(270, 15)">
                <rect id="矩形" fill-opacity="0" fill="#FFFFFF" x="0" y="0" width="22" height="22"></rect>
                <path d="M20.7169374,20.967881 C20.2703861,20.967881 1.7552887,20.967881 1.30877391,20.967881 C0.862076522,20.967881 0.5,20.5993309 0.5,20.1448327 L0.5,19.1090335 C0.5,17.8757249 2.29968174,14.7032342 7.21485043,13.5245353 C5.43985739,12.2891822 4.27386435,10.2134944 4.27386435,7.85959108 C4.27386435,4.07141264 7.2908887,1 11.0128557,1 C14.73464,1 17.7518104,4.07141264 17.7518104,7.85959108 C17.7518104,10.174461 16.6219374,12.2173234 14.8962852,13.4593309 C19.86452,14.5912639 21.5256748,17.9256506 21.5256748,19.1090335 C21.5256748,19.6452788 21.5256748,20.0473978 21.5256748,20.1448327 C21.5256748,20.5993309 21.1635983,20.967881 20.7169374,20.967881 Z" id="iconfont-wode" fill="#0187C8"></path>
                <path d="M8.26092561,14.6249409 L10.7761058,18.7049507 C10.9210153,18.9400163 11.229046,19.0131023 11.4641116,18.8681927 C11.5293611,18.8279687 11.5844889,18.7732814 11.6252351,18.7083567 L14.1879479,14.6249409 L14.1879479,14.6249409" id="Path-2" stroke="#FFFFFF" stroke-width="1.4" stroke-linecap="round"></path>
            </g>
        </g>
    </g>
</svg>