<?xml version="1.0" encoding="UTF-8"?>
<svg width="100px" height="100px" viewBox="0 0 100 100" version="1.1" xmlns="http://www.w3.org/2000/svg" xmlns:xlink="http://www.w3.org/1999/xlink">
    <title>订单-无</title>
    <g id="小程序" stroke="none" stroke-width="1" fill="none" fill-rule="evenodd">
        <g id="订单为空" transform="translate(-138, -272)">
            <g id="订单-无" transform="translate(138, 272)">
                <rect id="矩形" fill-opacity="0" fill="#FFFFFF" x="0" y="0" width="100" height="100"></rect>
                <g id="订单" transform="translate(0, 8)" fill-rule="nonzero">
                    <path d="M42.6,57.04375 L65.9333333,57.04375 L65.9333333,52.5104167 L45.1333333,52.5104167 L42.6,57.04375 Z M53.9333333,66.1104167 C53.9333333,69.44375 56.6,72.1770833 59.9333333,72.1770833 C63.2666667,72.1770833 66,69.44375 66,66.1104167 C66,65.5770833 65.9333333,65.1104167 65.8,64.5770833 L54.1333333,64.5770833 C54,65.04375 53.9333333,65.5770833 53.9333333,66.1104167 L53.9333333,66.1104167 Z M29.6666667,60.04375 C26.3333333,60.04375 23.6666667,62.7770833 23.6666667,66.1104167 C23.6666667,69.44375 26.3333333,72.1770833 29.6666667,72.1770833 C33,72.1770833 35.7333333,69.44375 35.7333333,66.1104167 C35.7333333,62.7770833 33.0666667,60.04375 29.6666667,60.04375 Z M39.0666667,50.9770833 L31,50.9770833 C30.6,50.9770833 30.2666667,50.64375 30.2666667,50.24375 C30.2666667,50.1104167 30.2666667,49.9770833 30.3333333,49.9104167 L33.0666667,44.9770833 L39.0666667,44.9770833 L29.7333333,25.3104167 L23.6666667,25.3104167 L23.6666667,19.24375 L33.5333333,19.24375 L36.4,25.3104167 L69.9333333,25.3104167 L71.6,22.24375 C71.8666667,21.84375 72,21.3104167 72,20.7770833 C72,19.1104167 70.6666667,17.7770833 69,17.7770833 L24.3333333,17.7770833 L21.4666667,11.7104167 L11.5333333,11.7104167 L11.5333333,17.7770833 L17.6,17.7770833 L28.4666667,40.7104167 L24.4,48.1104167 C23.9333333,48.9770833 23.6666667,49.9770833 23.6666667,51.04375 C23.6666667,54.3770833 26.4,57.1104167 29.7333333,57.1104167 L36,57.1104167 C36.1333333,56.64375 36.3333333,56.1770833 36.5333333,55.7104167 L39.0666667,50.9770833 L39.0666667,50.9770833 Z" id="形状" fill="#9DE9C6"></path>
                    <path d="M72,67.64375 C68.6666667,67.64375 66,70.3770833 66,73.7104167 C66,77.04375 68.6666667,79.7770833 72,79.7770833 C75.3333333,79.7770833 78.0666667,77.04375 78.0666667,73.7104167 C78.0666667,70.3104167 75.3333333,67.64375 72,67.64375 Z M41.8,67.64375 C38.4666667,67.64375 35.8,70.3770833 35.8,73.7104167 C35.8,77.04375 38.4666667,79.7770833 41.8,79.7770833 C45.1333333,79.7770833 47.8666667,77.04375 47.8666667,73.7104167 C47.8,70.3104167 45.1333333,67.64375 41.8,67.64375 Z M42.6,57.04375 L45.0666667,52.5104167 L67.6,52.5104167 C69.8666667,52.5104167 71.8666667,51.24375 72.8666667,49.3770833 L83.6666667,29.7770833 C83.9333333,29.3770833 84.0666667,28.84375 84.0666667,28.3104167 C84.0666667,26.64375 82.7333333,25.3104167 81.0666667,25.3104167 L36.4,25.3104167 L33.5333333,19.24375 L23.6666667,19.24375 L23.6666667,25.3104167 L29.7333333,25.3104167 L39.0666667,44.9770833 L40.6,48.24375 L39.0666667,50.9770833 L36.5333333,55.64375 C36.2666667,56.1104167 36.1333333,56.5770833 36,57.04375 C35.8666667,57.5104167 35.8,58.04375 35.8,58.5770833 C35.8,61.9104167 38.5333333,64.64375 41.8666667,64.64375 L78.2,64.64375 L78.2,58.5770833 L43.0666667,58.5770833 C42.6666667,58.5770833 42.3333333,58.24375 42.3333333,57.84375 C42.3333333,57.7104167 42.3333333,57.5770833 42.4,57.5104167 L42.6,57.04375 Z" id="形状" fill="#91D7B7"></path>
                    <path d="M12.4,63.84375 L8.53333333,63.84375 L8.53333333,59.9770833 C8.53333333,59.1104167 7.86666667,58.44375 7,58.44375 C6.13333333,58.44375 5.46666667,59.1104167 5.46666667,59.9770833 L5.46666667,63.84375 L1.6,63.84375 C0.733333333,63.84375 0.0666666667,64.5104167 0.0666666667,65.3770833 C0.0666666667,66.24375 0.733333333,66.9104167 1.6,66.9104167 L5.46666667,66.9104167 L5.46666667,70.7770833 C5.46666667,71.64375 6.13333333,72.3104167 7,72.3104167 C7.86666667,72.3104167 8.53333333,71.64375 8.53333333,70.7770833 L8.53333333,66.9104167 L12.4,66.9104167 C13.2666667,66.9104167 13.9333333,66.24375 13.9333333,65.3770833 C13.8666667,64.5104167 13.2,63.84375 12.4,63.84375 Z" id="路径" fill="#9DE9C6"></path>
                    <polygon id="路径" fill="#9DE9C6" points="5.73333333 30.1104167 14.2666667 30.1104167 14.2666667 38.64375 5.73333333 38.64375"></polygon>
                    <path d="M91.2666667,58.5104167 C91.2666667,60.8668316 93.1769184,62.7770833 95.5333333,62.7770833 C97.8897483,62.7770833 99.8,60.8668316 99.8,58.5104167 C99.8,56.9860834 98.986778,55.5775414 97.6666667,54.8153747 C96.3465554,54.0532081 94.7201112,54.0532081 93.3999999,54.8153747 C92.0798886,55.5775414 91.2666667,56.9860834 91.2666667,58.5104167 Z" id="路径" fill="#9DE9C6"></path>
                    <path d="M90.8666667,12.04375 L79.2666667,0.44375 C78.8666667,0.04375 78.2,-0.0895833333 77.6,0.110416667 C77.0666667,0.377083333 76.6666667,0.910416667 76.6666667,1.51041667 L76.6666667,13.1104167 C76.6666667,13.5104167 76.8666667,13.9104167 77.1333333,14.1770833 C77.4,14.44375 77.8,14.64375 78.2,14.64375 L89.8,14.64375 C90.4,14.64375 90.9333333,14.24375 91.2,13.7104167 C91.4,13.1104167 91.2666667,12.44375 90.8666667,12.04375 Z M79.6666667,11.5770833 L79.6666667,5.17708333 L86.0666667,11.5770833 L79.6666667,11.5770833 Z" id="形状" fill="#9DE9C6"></path>
                </g>
            </g>
        </g>
    </g>
</svg>