<?xml version="1.0" encoding="UTF-8"?>
<svg width="20px" height="21px" viewBox="0 0 20 21" version="1.1" xmlns="http://www.w3.org/2000/svg" xmlns:xlink="http://www.w3.org/1999/xlink">
    <title>退出</title>
    <g id="小程序" stroke="none" stroke-width="1" fill="none" fill-rule="evenodd">
        <g id="登录/注册" transform="translate(-33, -540)" fill="#272829" fill-rule="nonzero">
            <g id="编组-3" transform="translate(20, 320)">
                <g id="退出" transform="translate(13, 220.9495)">
                    <rect id="矩形" opacity="0" x="0" y="0" width="20" height="20"></rect>
                    <path d="M10.4166667,1.25 C10.5271735,1.25 10.6331543,1.29389868 10.7112945,1.37203883 C10.7894347,1.45017899 10.8333333,1.55615979 10.8333333,1.66666666 L10.8333333,2.5 C10.8333333,2.61050687 10.7894347,2.71648767 10.7112945,2.79462783 C10.6331543,2.87276798 10.5271735,2.91666667 10.4166667,2.91666666 L3.33333334,2.91666666 L3.33333334,17.0833333 L10.4166667,17.0833333 C10.5271735,17.0833333 10.6331543,17.127232 10.7112945,17.2053722 C10.7894347,17.2835123 10.8333333,17.3894931 10.8333333,17.5 L10.8333333,18.3333333 C10.8333333,18.4438402 10.7894347,18.549821 10.7112945,18.6279612 C10.6331543,18.7061013 10.5271735,18.75 10.4166667,18.75 L3.33333334,18.75 C2.44524942,18.75 1.71315419,18.0536398 1.66875,17.1666667 L1.66666666,17.0833333 L1.66666666,2.91666666 C1.66666666,2.02858275 2.36302689,1.29648753 3.25,1.25208334 L3.33333334,1.25 L10.4166667,1.25 Z M14.2170833,5.53875 L17.7945833,9.11625 C18.2600445,9.58180214 18.2846453,10.3285732 17.8508333,10.82375 L17.7945833,10.88375 L14.2170833,14.46125 C14.0543751,14.6239092 13.7906249,14.6239092 13.6279167,14.46125 L13.03875,13.8720833 C12.8760908,13.7093751 12.8760908,13.4456249 13.03875,13.2829167 L15.4875,10.8333333 L7.08333334,10.8333333 C6.97282646,10.8333333 6.86684566,10.7894347 6.7887055,10.7112945 C6.71056534,10.6331543 6.66666666,10.5271735 6.66666666,10.4166667 L6.66666666,9.58333334 C6.66666666,9.47282646 6.71056534,9.36684566 6.7887055,9.2887055 C6.86684566,9.21056534 6.97282646,9.16666665 7.08333334,9.16666666 L15.4875,9.16666666 L13.03875,6.71708334 C12.8760908,6.55437507 12.8760908,6.29062493 13.03875,6.12791666 L13.6279167,5.53875 C13.7906249,5.37609085 14.0543751,5.37609085 14.2170833,5.53875 L14.2170833,5.53875 Z" id="形状"></path>
                </g>
            </g>
        </g>
    </g>
</svg>