<?xml version="1.0" encoding="UTF-8"?>
<svg width="20px" height="20px" viewBox="0 0 20 20" version="1.1" xmlns="http://www.w3.org/2000/svg" xmlns:xlink="http://www.w3.org/1999/xlink">
    <title>订阅</title>
    <g id="小程序" stroke="none" stroke-width="1" fill="none" fill-rule="evenodd">
        <g id="登录/注册" transform="translate(-33, -407)" fill="#272829" fill-rule="nonzero">
            <g id="编组-3" transform="translate(20, 320)">
                <g id="编组-2备份-5" transform="translate(10, 87)">
                    <g id="订阅" transform="translate(3, 0)">
                        <rect id="矩形" opacity="0" x="0" y="0" width="20" height="20"></rect>
                        <path d="M11.5030719,4.3257804 C12.3799658,4.3257804 13.2064383,4.66421598 13.8268407,5.27817283 C14.4472432,5.89212969 14.7914241,6.70784621 14.7914241,7.5777992 L14.7958085,11.2962517 C14.7958085,11.5370616 14.8528066,11.7778715 14.9624184,11.9948174 L16.6614003,15.3531397 C16.6723615,15.3748343 16.705245,15.439918 16.6548236,15.5223575 C16.6044022,15.6047969 16.5298662,15.6047969 16.5057517,15.6047969 L13.9781049,15.6047969 L11.8012158,15.6069664 L9.18149521,15.6091358 L7.77408047,15.6091358 L4.49449722,15.6113053 L4.49230498,15.6113053 C4.4681904,15.6113053 4.39365442,15.6113053 4.34323302,15.5288659 C4.29281162,15.4464264 4.32569514,15.3813427 4.33665631,15.3596481 L6.03344605,12.0056647 C6.14305779,11.7887188 6.20005589,11.5457394 6.20005589,11.3049295 L6.19567142,7.58647704 C6.19567142,6.71652404 6.53546781,5.89863806 7.15587026,5.28468121 C7.77627271,4.6685549 8.60274523,4.33011932 9.47963914,4.33011932 L11.4986874,4.32794986 L11.5030719,4.32794986 M11.5030719,3.0241051 L11.4986874,3.0241051 L9.47963914,3.02627456 C6.93664678,3.02844402 4.87813831,5.06990478 4.88033054,7.58647704 L4.88471501,11.3049295 C4.88471501,11.3461492 4.87594607,11.3851995 4.85621596,11.4220803 L3.15942623,14.7760636 C2.66398116,15.756659 3.38303418,16.9108111 4.49230498,16.9108111 L4.49449722,16.9108111 L7.77627271,16.9086417 C8.08318558,18.1105219 9.18368745,19 10.4924516,19 C11.803408,19 12.9039099,18.1083524 13.2108228,16.9043028 L12.7351078,16.9043028 L13.2108228,16.9043028 L16.5079439,16.9021333 C17.6150225,16.9021333 18.3362677,15.7458117 17.8408227,14.7652163 L16.1418407,11.4068941 C16.1243028,11.3700133 16.1133416,11.330963 16.1133416,11.2897433 L16.1089572,7.57129083 C16.1045727,5.06122695 14.043872,3.0241051 11.5030719,3.0241051 Z M9.18149521,16.9108111 L11.8012158,16.9086417 C11.5534933,17.3750753 11.0602404,17.6939858 10.4902594,17.6939858 C9.92247057,17.6939858 9.42921774,17.3750753 9.18149521,16.9108111 L8.6071297,16.9108111 L9.18149521,16.9108111 Z M10.5121817,1 C9.29549142,1 8.30898576,1.97408702 8.30460129,3.17813668 C8.67947344,3.08051103 9.07188347,3.02844402 9.47744691,3.02627456 L9.61117323,3.02627456 C9.70543933,2.63360251 10.0627736,2.34072556 10.4902594,2.34072556 C10.9155529,2.34072556 11.2728872,2.63360251 11.3693455,3.02627456 L11.5008796,3.02627456 C11.9217887,3.02627456 12.3295444,3.08268049 12.7175699,3.18681451 L12.7175699,3.18464505 C12.7175699,1.97842594 11.7310643,1 10.5121817,1 Z" id="形状"></path>
                    </g>
                </g>
            </g>
        </g>
    </g>
</svg>